<?xml version="1.0" encoding="utf-8"?>
<!-- Generator: Adobe Illustrator 27.1.1, SVG Export Plug-In . SVG Version: 6.00 Build 0)  -->
<svg version="1.1" id="Слой_1" xmlns="http://www.w3.org/2000/svg" xmlns:xlink="http://www.w3.org/1999/xlink" x="0px" y="0px"
	 viewBox="0 0 1244 1355" style="enable-background:new 0 0 1244 1355;" xml:space="preserve">
<style type="text/css">
	.st0{fill:#CE1956;}
	.st1{fill:#FF71A0;}
	.st2{fill:#FFFFFF;}
	.st3{fill:#ED4545;}
</style>
<g transform="translate(0.000000,1355.000000) scale(0.100000,-0.100000)">
	<path class="st0" d="M6185,13543c-101-20-293-91-520-194c-176-79-975-478-1280-639c-879-465-2020-1094-3260-1800
		c-355-202-472-287-655-476c-245-254-386-516-447-835C6,9510,5,9370,5,6795c0-2241,2-2723,14-2785c52-288,214-574,466-825
		c185-184,153-164,1240-798C3993,1064,5549,223,6059,46c121-42,178-45,277-15c427,132,1942,945,4120,2210c875,508,1249,731,1319,787
		c39,30,120,105,181,166c271,272,427,563,464,866c8,70,10,792,8,2790l-4,2695l-22,97c-89,386-322,734-670,1001
		c-135,103-173,126-797,479C8048,12754,6410,13589,6185,13543z M6288,12834c547-217,2246-1117,4257-2255c634-358,659-373,747-436
		c175-126,338-318,408-480c64-152,60,64,60-2874c0-2432-1-2680-16-2730c-41-139-148-295-298-436c-87-81-127-107-493-322
		c-1387-817-2707-1567-3585-2037c-301-161-972-497-1079-541l-76-30l-159,72c-714,323-2362,1236-4519,2503c-220,129-420,249-445,265
		c-74,51-233,218-295,311c-31,48-72,122-89,164l-31,77l-3,2678c-2,2940-7,2735,58,2891c46,109,117,213,217,317
		c166,172,201,194,1363,846c1797,1009,3173,1735,3770,1989c69,30,129,54,133,54C6218,12860,6252,12848,6288,12834z"/>
	<path class="st1" d="M6288,12834c547-217,2246-1117,4257-2255c634-358,659-373,747-436c175-126,338-318,408-480
		c64-152,60,64,60-2874c0-2432-1-2680-16-2730c-41-139-148-295-298-436c-87-81-127-107-493-322c-1387-817-2707-1567-3585-2037
		c-301-161-972-497-1079-541l-76-30l-159,72c-714,323-2362,1236-4519,2503c-220,129-420,249-445,265c-74,51-233,218-295,311
		c-31,48-72,122-89,164l-31,77l-3,2678c-2,2940-7,2735,58,2891c46,109,117,213,217,317c166,172,201,194,1363,846
		c1797,1009,3173,1735,3770,1989c69,30,129,54,133,54C6218,12860,6252,12848,6288,12834z"/>
	<path class="st2" d="M7953.8,8768.9H5772.2l-327.3-439.3c-41.3-55.4-124.4-55-165.2,0.7l-321.1,438.6h-482.4
		c-226.7,0-410.4,183.7-410.4,410.4v1339.2c0,226.7,183.7,410.4,410.4,410.4h3477.6c226.7,0,410.4-183.7,410.4-410.4V9179.3
		C8364.2,8952.7,8180.5,8768.9,7953.8,8768.9z"/>
	<path class="st3" d="M4843,10315c-46-20-68-68-54-117c18-58,47-68,191-68h120v-367c0-347,1-370,20-400c27-45,84-62,133-38
		c66,31,67,39,67,444v361h126c125,0,126,0,155,29c50,51,37,130-26,157C5526,10336,4890,10336,4843,10315z"/>
	<path class="st3" d="M7308,10271c-29-26-33-35-36-99c-4-71-4-71-39-83c-41-13-69-63-59-103c8-33,44-66,72-66h22l4-227
		c3-207,5-232,24-274c12-25,36-56,53-68c45-32,142-46,214-31c77,16,109,44,109,95c0,54-36,85-98,85c-31,0-50,6-64,20
		c-19,19-20,33-20,210v190h68c75,0,106,17,118,65c17,66-41,115-135,115h-49l-4,71c-3,65-6,74-36,100c-24,22-42,29-72,29
		S7332,10293,7308,10271z"/>
	<path class="st3" d="M5900,10109c-115-23-227-116-272-227c-19-48-23-75-23-177c0-116,1-123,32-186c76-155,248-239,426-210
		c86,14,141,38,190,81c31,27,37,39,37,71c0,83-69,102-167,47c-128-72-277-22-308,105l-7,27h239c196,0,242,3,260,15
		c74,52,33,253-72,359C6149,10099,6028,10134,5900,10109z M6021,9940c42-12,82-51,103-102c30-70,34-68-149-68c-186,0-182-2-146,75
		c22,49,48,73,98,91C5974,9952,5976,9952,6021,9940z"/>
	<path class="st3" d="M6713,10100c-93-19-171-78-195-149c-17-50-15-149,4-186c35-67,99-106,238-148c106-33,130-49,130-87
		c0-73-119-81-254-17c-91,43-106,45-140,15c-39-34-43-78-12-114c55-67,238-122,355-108c155,18,240,104,241,245c0,120-51,170-252,244
		c-125,46-162,90-110,133c28,22,109,14,189-18c83-34,112-32,143,7c26,34,25,76-2,108C7002,10077,6811,10120,6713,10100z"/>
	<path class="st0" d="M3468,9351c-164-53-287-189-323-358c-13-58-15-427-15-2508c0-1659,4-2461,11-2505c29-183,171-337,354-385
		c52-13,363-15,2725-15c2870,0,2706-3,2816,51c67,32,166,128,202,197c67,125,62-76,62,2644c0,1762-3,2482-11,2520
		c-30,145-129,271-265,335l-79,38l-287,3l-288,3v-103c0-206-36-313-135-407c-67-63-137-97-230-111c-43-6-485-10-1160-10l-1090-1
		l-95-126c-52-70-96-130-98-135c-2-4,47-8,110-8c129,0,174-10,218-47c43-36,60-74,60-136s-25-108-79-144l-34-23h-851h-851l-39,23
		c-84,48-109,161-53,245c51,78,40,76,599,82l497,5l-100,133l-99,132h-218c-257,1-342,10-420,47c-77,36-155,116-195,200
		c-31,66-32,72-35,226l-4,157l-271-1C3562,9369,3517,9366,3468,9351z M7067,7541c59-27,96-86,96-154c1-63-20-106-70-144l-36-28
		l-1277-3l-1276-2l-44,23c-76,40-111,140-76,220c17,41,65,85,102,97c16,4,594,9,1284,9C6982,7560,7026,7559,7067,7541z M5506,6625
		c69-41,102-136,73-212c-15-40-48-73-94-94c-38-17-79-19-685-19c-607,0-647,2-686,19c-105,48-136,183-61,268c57,65,27,62,751,63h659
		L5506,6625z M6685,5728c77-42,115-123,95-200c-13-47-48-91-95-116c-28-16-134-17-1285-17c-1214,0-1256,1-1293,19
		c-83,41-118,147-77,230c25,52,61,82,116,95c23,5,555,9,1274,8C6550,5745,6658,5744,6685,5728z M6160,4813c101-62,108-218,14-289
		l-37-29l-986-3c-670-2-998,0-1022,8c-21,6-52,27-72,49c-79,87-50,223,57,272c39,18,84,19,1026,16l985-2L6160,4813z"/>
</g>
</svg>
